<svg width="512" height="512" viewBox="0 0 512 512" fill="none" xmlns="http://www.w3.org/2000/svg">
<rect width="512" height="512" rx="114" fill="url(#paint0_linear)"/>
<path d="M128 176C128 149.49 149.49 128 176 128H336C362.51 128 384 149.49 384 176V336C384 362.51 362.51 384 336 384H176C149.49 384 128 362.51 128 336V176Z" fill="white"/>
<path d="M128 200H384V176C384 149.49 362.51 128 336 128H176C149.49 128 128 149.49 128 176V200Z" fill="#FF3B30"/>
<circle cx="256" cy="276" r="40" fill="#FF9500"/>
<path d="M256 220L266 250H298L272 268L282 298L256 280L230 298L240 268L214 250H246L256 220Z" fill="url(#paint1_linear)"/>
<rect x="176" y="104" width="24" height="48" rx="12" fill="#E5E5EA"/>
<rect x="312" y="104" width="24" height="48" rx="12" fill="#E5E5EA"/>
<defs>
<linearGradient id="paint0_linear" x1="0" y1="0" x2="512" y2="512" gradientUnits="userSpaceOnUse">
<stop stop-color="#21D4FD"/>
<stop offset="1" stop-color="#B721FF"/>
</linearGradient>
<linearGradient id="paint1_linear" x1="256" y1="220" x2="256" y2="298" gradientUnits="userSpaceOnUse">
<stop stop-color="#FFD700"/>
<stop offset="1" stop-color="#FF8C00"/>
</linearGradient>
</defs>
</svg>
